<svg xmlns="http://www.w3.org/2000/svg" viewBox="0 0 317.54 309.7"><defs><style>.cls-1{fill:#565656;fill-rule:evenodd;}</style></defs><title>Asset 278</title><g id="Layer_2" data-name="Layer 2"><g id="size"><path class="cls-1" d="M158.76,0a158.79,158.79,0,0,0-50.17,309.43c7.93,1.45,10.83-3.45,10.83-7.66,0-3.76-.14-13.75-.21-27-44.17,9.6-53.49-21.28-53.49-21.28C58.5,235.15,48.1,230.26,48.1,230.26c-14.42-9.85,1.09-9.65,1.09-9.65C65.12,221.73,73.51,237,73.51,237c14.16,24.27,37.16,17.26,46.2,13.2,1.44-10.26,5.55-17.26,10.08-21.23-35.25-4-72.32-17.63-72.32-78.47a61.39,61.39,0,0,1,16.34-42.6c-1.63-4-7.08-20.16,1.56-42,0,0,13.33-4.27,43.66,16.27a150.62,150.62,0,0,1,79.5,0c30.31-20.54,43.62-16.27,43.62-16.27,8.66,21.86,3.21,38,1.58,42,10.17,11.1,16.32,25.27,16.32,42.6,0,61-37.13,74.42-72.5,78.35,5.71,4.9,10.78,14.59,10.78,29.4,0,21.22-.19,38.35-.19,43.55,0,4.25,2.86,9.19,10.92,7.64A158.8,158.8,0,0,0,158.76,0Z"/></g></g></svg>