<svg xmlns="http://www.w3.org/2000/svg" viewBox="0 0 248.36 215.18"><defs><style>.cls-1{fill:#ff83a1;}</style></defs><title>Asset 277</title><g id="Layer_2" data-name="Layer 2"><g id="flat"><circle class="cls-1" cx="41.22" cy="8.04" r="8.04"/><circle class="cls-1" cx="74.4" cy="8.04" r="8.04"/><circle class="cls-1" cx="173.96" cy="8.04" r="8.04"/><circle class="cls-1" cx="207.14" cy="8.04" r="8.04"/><circle class="cls-1" cx="8.04" cy="41.22" r="8.04"/><circle class="cls-1" cx="41.22" cy="41.22" r="8.04"/><circle class="cls-1" cx="74.4" cy="41.22" r="8.04"/><circle class="cls-1" cx="107.59" cy="41.22" r="8.04"/><circle class="cls-1" cx="140.77" cy="41.22" r="8.04"/><circle class="cls-1" cx="173.96" cy="41.22" r="8.04"/><circle class="cls-1" cx="207.14" cy="41.22" r="8.04"/><circle class="cls-1" cx="240.32" cy="41.22" r="8.04"/><circle class="cls-1" cx="8.04" cy="74.4" r="8.04"/><circle class="cls-1" cx="41.22" cy="74.4" r="8.04"/><circle class="cls-1" cx="74.4" cy="74.4" r="8.04"/><circle class="cls-1" cx="107.59" cy="74.4" r="8.04"/><circle class="cls-1" cx="140.77" cy="74.4" r="8.04"/><circle class="cls-1" cx="173.96" cy="74.4" r="8.04"/><circle class="cls-1" cx="207.14" cy="74.4" r="8.04"/><circle class="cls-1" cx="240.32" cy="74.4" r="8.04"/><circle class="cls-1" cx="8.04" cy="107.59" r="8.04"/><circle class="cls-1" cx="41.22" cy="107.59" r="8.04"/><circle class="cls-1" cx="74.4" cy="107.59" r="8.04"/><circle class="cls-1" cx="107.59" cy="107.59" r="8.04"/><circle class="cls-1" cx="140.77" cy="107.59" r="8.04"/><circle class="cls-1" cx="173.96" cy="107.59" r="8.04"/><circle class="cls-1" cx="207.14" cy="107.59" r="8.04"/><circle class="cls-1" cx="240.32" cy="107.59" r="8.04"/><circle class="cls-1" cx="41.22" cy="140.77" r="8.04"/><circle class="cls-1" cx="74.4" cy="140.77" r="8.04"/><circle class="cls-1" cx="107.59" cy="140.77" r="8.04"/><circle class="cls-1" cx="140.77" cy="140.77" r="8.04"/><circle class="cls-1" cx="173.96" cy="140.77" r="8.04"/><circle class="cls-1" cx="207.14" cy="140.77" r="8.04"/><circle class="cls-1" cx="74.4" cy="173.96" r="8.04"/><circle class="cls-1" cx="107.59" cy="173.96" r="8.04"/><circle class="cls-1" cx="140.77" cy="173.96" r="8.04"/><circle class="cls-1" cx="173.96" cy="173.96" r="8.04"/><circle class="cls-1" cx="107.59" cy="207.14" r="8.04"/><circle class="cls-1" cx="140.77" cy="207.14" r="8.04"/></g></g></svg>