<?xml version="1.0" encoding="UTF-8" standalone="no"?>
<!-- Created with Keyshape -->
<svg xmlns="http://www.w3.org/2000/svg" xmlns:xlink="http://www.w3.org/1999/xlink" shape-rendering="geometricPrecision" text-rendering="geometricPrecision" viewBox="0 0 64 64" style="white-space: pre;">
    <style>
@keyframes a0_t { 0% { transform: translate(0px,-0px); animation-timing-function: cubic-bezier(0.445,0.05,0.55,0.95); } 50% { transform: translate(0px,-6px); animation-timing-function: cubic-bezier(0.445,0.05,0.55,0.95); } 100% { transform: translate(0px,-0px); } }
@keyframes a1_t { 0% { transform: translate(4.3px,8.695px) rotate(0deg) translate(-4.3px,-8.695px); animation-timing-function: cubic-bezier(0.785,0.135,0.15,0.86); } 50% { transform: translate(4.3px,8.695px) rotate(15deg) translate(-4.3px,-8.695px); animation-timing-function: cubic-bezier(0.785,0.135,0.15,0.86); } 100% { transform: translate(4.3px,8.695px) rotate(0deg) translate(-4.3px,-8.695px); } }
    </style>
    <g transform="translate(27.3755,37.35) translate(-20.4509,-16)">
        <path fill="#99a3aa" d="M32.1,14.2C32.1,14.2,32,14.2,32,14.2C31.1,6.2,24.3,0,16,0C7.2,0,0,7.2,0,16C0,24.8,7.2,32,16,32L32,32C36.9,32,40.9,28,40.9,23.1C41,18.2,37,14.2,32.1,14.2Z" transform="translate(20.4509,16) translate(-20.4509,-16)" style="animation: 3s linear infinite both a0_t;"/>
    </g>
    <g transform="translate(50.5755,19.35) translate(-6.5,-8.7)">
        <path fill="#FFCE55" d="M4.3,0C2.8,0,1.3,0.4,0,1.2C2.6,2.7,4.3,5.5,4.3,8.7C4.3,11.9,2.6,14.7,0,16.2C1.3,16.9,2.8,17.4,4.3,17.4C9.1,17.4,13,13.5,13,8.7C13,3.9,9.1,0,4.3,0Z" transform="translate(4.3,8.695) translate(-4.3,-8.695)" style="animation: 3s linear infinite both a1_t;"/>
    </g>
</svg>
