<?xml version="1.0" encoding="UTF-8" standalone="no"?>
<!-- Created with Keyshape -->
<svg xmlns="http://www.w3.org/2000/svg" xmlns:xlink="http://www.w3.org/1999/xlink" shape-rendering="geometricPrecision" text-rendering="geometricPrecision" viewBox="0 0 64 64" style="white-space: pre;">
    <style>
@keyframes a0_o { 0% { opacity: 1; animation-timing-function: cubic-bezier(0.77,0,0.175,1); } 50% { opacity: 0.7; animation-timing-function: cubic-bezier(0.77,0,0.175,1); } 100% { opacity: 1; } }
@keyframes a1_t { 0% { transform: translate(32px,34.886791px) scale(1,1); animation-timing-function: cubic-bezier(0.77,0,0.175,1); } 50% { transform: translate(32px,34.886791px) scale(0.7,0.7); animation-timing-function: cubic-bezier(0.77,0,0.175,1); } 100% { transform: translate(32px,34.886791px) scale(1,1); } }
    </style>
    <path fill="#51F4EB" d="M21.1,11.2L21.1,11.2L21.1,11.2C20.9,10.9,20.7,10.6,20.5,10.3L13.9,1.3C12.7,-0.4,10.2,-0.4,8.9,1.3L2.3,10.3C2.1,10.6,1.9,10.9,1.7,11.2L1.7,11.2L1.7,11.2C0.6,13,-0.1,15.2,0,17.6C0.2,23.7,5.2,28.6,11.2,28.6C17.6,28.7,22.8,23.5,22.8,17.2C22.8,15,22.2,12.9,21.1,11.2Z" opacity="1" transform="translate(20.6047,17.6868)" style="animation: 2s linear infinite both a0_o;"/>
    <ellipse rx="5.5" ry="5.5" opacity="0.5" fill="#ffffff" stroke="none" transform="translate(32,34.8868)" style="animation: 2s linear infinite both a1_t;"/>
</svg>
