<?xml version="1.0" encoding="utf-8"?>
<!-- Generator: Adobe Illustrator 22.1.0, SVG Export Plug-In . SVG Version: 6.00 Build 0)  -->
<svg version="1.1" id="Layer_1" text-rendering="geometricPrecision" shape-rendering="geometricPrecision"
	 xmlns="http://www.w3.org/2000/svg" xmlns:xlink="http://www.w3.org/1999/xlink" x="0px" y="0px" viewBox="0 0 96 64"
	 style="enable-background:new 0 0 96 64;" xml:space="preserve">
<style type="text/css">
	.st0{fill:#1FCCE8;}
	.st1{fill:#FFCE55;}
	.st2{fill:#FFAF57;}
	.st3{fill:#EBF2F2;}
</style>
<rect class="st0" width="96" height="64"/>
<g transform="translate(48,33.8879) translate(-24.0755,-18.71)">
	<g transform="translate(18.7509,0)">
		<ellipse class="st1" cx="14.7" cy="14.7" rx="8.7" ry="8.7"/>
	</g>
	<g transform="translate(33.4509,14.7) translate(-14.7,-14.7)">
		<ellipse class="st2" cx="14.7" cy="14.7" rx="5.7" ry="5.7"/>
	</g>
	<g transform="translate(33.4509,14.7) translate(-14.7,-14.7)">
		<ellipse class="st1" cx="14.7" cy="1.7" rx="1.7" ry="1.7"/>
		<ellipse class="st1" cx="14.7" cy="27.7" rx="1.7" ry="1.7"/>
		<ellipse class="st1" cx="1.7" cy="14.7" rx="1.7" ry="1.7"/>
		<ellipse class="st1" cx="27.7" cy="14.7" rx="1.7" ry="1.7"/>
		<ellipse class="st1" cx="5.5" cy="5.5" rx="1.7" ry="1.7"/>
		<ellipse class="st1" cx="23.9" cy="23.9" rx="1.7" ry="1.7"/>
		<ellipse class="st1" cx="5.5" cy="23.9" rx="1.7" ry="1.7"/>
		<ellipse class="st1" cx="23.9" cy="5.5" rx="1.7" ry="1.7"/>
	</g>
	<path class="st3" d="M32.1,19.6L32.1,19.6c-1-8-7.8-14.2-16.1-14.2c-8.8,0-16,7.2-16,16s7.2,16,16,16h16c4.9,0,8.9-4,8.9-8.9
		C41,23.6,37,19.6,32.1,19.6z"/>
</g>
</svg>
